<svg width="36" height="36" viewBox="0 0 36 36" fill="none" xmlns="http://www.w3.org/2000/svg">
<path fill-rule="evenodd" clip-rule="evenodd" d="M18 36C27.9411 36 36 27.9411 36 18C36 8.05887 27.9411 0 18 0C8.05887 0 0 8.05887 0 18C0 27.9411 8.05887 36 18 36ZM6 11.0167C6 9.90247 6.87155 8.99997 7.94755 8.99997H28.0525C29.1257 8.99997 29.9973 9.90247 30 11.0139V13.2395V16.0083V23.9833C30 25.0975 29.1285 26 28.0525 26H7.94755C6.87155 26 6 25.0975 6 23.9833V16.0111V13.2423V11.0167ZM28.924 11.0139C28.924 10.5013 28.5178 10.1114 28.0525 10.1114H7.94755C7.45529 10.1114 7.076 10.5348 7.076 11.0139V12.6991H28.924V11.0139ZM7.076 13.7827V15.4373H28.924V13.7827H7.076ZM7.076 23.9805C7.076 24.493 7.48219 24.883 7.94755 24.883H28.0525C28.5447 24.883 28.924 24.4623 28.924 23.9526V16.5515H7.076V23.9805ZM25.9031 20.0696C26.1936 20.0696 26.425 19.83 26.425 19.5292C26.425 19.1977 26.1641 18.9582 25.8736 18.9888H20.3242C20.0336 18.9888 19.8023 19.2284 19.8023 19.5292C19.8023 19.83 20.0336 20.0696 20.3242 20.0696H25.9031ZM25.9031 23.0167C26.1936 23.0167 26.425 22.7771 26.425 22.4763C26.425 22.1754 26.1641 21.9359 25.9031 21.9359H22.7075C22.4169 21.9359 22.1856 22.1754 22.1856 22.4763C22.1856 22.7771 22.4169 23.0167 22.7075 23.0167H25.9031Z" fill="white"/>
</svg>
