<svg width="36" height="36" viewBox="0 0 36 36" fill="none" xmlns="http://www.w3.org/2000/svg">
<path fill-rule="evenodd" clip-rule="evenodd" d="M18 36C27.9411 36 36 27.9411 36 18C36 8.05887 27.9411 0 18 0C8.05887 0 0 8.05887 0 18C0 27.9411 8.05887 36 18 36ZM29.6149 24.616C29.852 24.2345 30 23.8009 30 23.3333V12.6668C30 12.1447 29.8244 11.6615 29.5328 11.2502L22.0371 17.0795L29.6149 24.616ZM28.4299 10.336L18 18.4479L7.57104 10.336C7.99732 10.1277 8.47943 10 8.99998 10H27.0001C27.52 10 28.0019 10.1277 28.4299 10.336ZM18.4936 19.8361L20.9078 17.9572L28.582 25.5898C28.1222 25.8463 27.5829 26 27.0001 26H8.99993C8.41696 26 7.87791 25.8463 7.41796 25.5898L15.0916 17.9571L17.5064 19.8361C17.6476 19.9454 17.8234 20 18 20C18.1765 20 18.3524 19.9454 18.4936 19.8361ZM6 12.6668C6 12.1446 6.17579 11.6615 6.46733 11.2502L13.9622 17.0783L6.38527 24.616C6.1473 24.2345 6 23.801 6 23.3333V12.6668Z" fill="white"/>
</svg>
