<svg width="36" height="36" viewBox="0 0 36 36" fill="none" xmlns="http://www.w3.org/2000/svg">
<path fill-rule="evenodd" clip-rule="evenodd" d="M18 36C27.9411 36 36 27.9411 36 18C36 8.05887 27.9411 0 18 0C8.05887 0 0 8.05887 0 18C0 27.9411 8.05887 36 18 36ZM23.7404 27.7274C23.7404 30 21.4711 30 21.4711 30H13.5289C13.5289 30 11.2597 30 11.2596 27.7274V7.27263C11.2596 5 13.5289 5 13.5289 5H21.4711C21.4711 5 23.7403 5 23.7404 7.27263V27.7274ZM16.3654 27.9191C16.3654 28.5454 16.8737 29.0537 17.5 29.0537C18.1263 29.0537 18.6346 28.5454 18.6346 27.9191C18.6346 27.2928 18.1263 26.7845 17.5 26.7845C16.8737 26.7845 16.3654 27.2928 16.3654 27.9191ZM15.949 6.1346C15.865 6.1346 15.7981 6.24467 15.7981 6.38535V6.4523C15.7981 6.59072 15.8661 6.70306 15.949 6.70306H19.051C19.1338 6.70306 19.2019 6.59299 19.2019 6.4523V6.38535C19.2019 6.24694 19.1338 6.1346 19.051 6.1346H15.949ZM22.6057 7.83652H12.3943V25.9903H22.6057V7.83652Z" fill="white"/>
</svg>
