<?xml version="1.0" ?><svg height="24" id="svg8" version="1.1" viewBox="0 0 6.3499998 6.3500002" width="24" xmlns="http://www.w3.org/2000/svg" xmlns:cc="http://creativecommons.org/ns#" xmlns:dc="http://purl.org/dc/elements/1.1/" xmlns:inkscape="http://www.inkscape.org/namespaces/inkscape" xmlns:rdf="http://www.w3.org/1999/02/22-rdf-syntax-ns#" xmlns:sodipodi="http://sodipodi.sourceforge.net/DTD/sodipodi-0.dtd" xmlns:svg="http://www.w3.org/2000/svg"><defs id="defs2"/><g id="layer1"><path d="M 3.1867957,0.54991431 A 0.26001054,0.26929038 1.2739714e-6 0 0 2.9542519,0.69719198 L 2.2669552,2.1131264 0.75128557,2.330684 A 0.26001054,0.26929038 1.2739714e-6 0 0 0.60555784,2.7885373 L 1.693347,3.9031979 1.4235958,5.4622758 A 0.26001054,0.26929038 1.2739714e-6 0 0 1.7987667,5.7495969 L 3.1573403,5.0204423 4.5081619,5.7687171 A 0.26001054,0.26929038 1.2739714e-6 0 0 4.8864335,5.4865638 L 4.6389034,3.9233518 5.7416785,2.826261 A 0.26001054,0.26929038 1.2739714e-6 0 0 5.6000852,2.3658241 L 4.0880327,2.1275957 3.4198563,0.70132609 A 0.26001054,0.26929038 1.2739714e-6 0 0 3.2307208,0.55404842 0.26001054,0.26929038 1.2739714e-6 0 0 3.1867957,0.54991299 Z" id="path1242" style="color:#00000;font-style:normal;font-variant:normal;font-weight:normal;font-stretch:normal;font-size:medium;line-height:normal;font-family:sans-serif;font-variant-ligatures:normal;font-variant-position:normal;font-variant-caps:normal;font-variant-numeric:normal;font-variant-alternates:normal;font-variant-east-asian:normal;font-feature-settings:normal;font-variation-settings:normal;text-indent:0;text-align:start;text-decoration:none;text-decoration-line:none;text-decoration-style:solid;text-decoration-color:#000000;letter-spacing:normal;word-spacing:normal;text-transform:none;writing-mode:lr-tb;direction:ltr;text-orientation:mixed;dominant-baseline:auto;baseline-shift:baseline;text-anchor:start;white-space:normal;shape-padding:0;shape-margin:0;inline-size:0;clip-rule:nonzero;display:inline;overflow:visible;visibility:visible;opacity:1;isolation:auto;mix-blend-mode:normal;color-interpolation:sRGB;color-interpolation-filters:linearRGB;solid-color:#000000;solid-opacity:1;vector-effect:none;fill:#FFBF00;fill-opacity:1;fill-rule:nonzero;stroke:none;stroke-width:0.529167;stroke-linecap:round;stroke-linejoin:round;stroke-miterlimit:4;stroke-dasharray:none;stroke-dashoffset:0;stroke-opacity:1;paint-order:stroke fill markers;color-rendering:auto;image-rendering:auto;shape-rendering:auto;text-rendering:auto;enable-background:accumulate;stop-color:#000000;stop-opacity:1"/></g></svg>
